<?xml version="1.0" standalone="no"?><!DOCTYPE svg PUBLIC "-//W3C//DTD SVG 1.1//EN" "http://www.w3.org/Graphics/SVG/1.1/DTD/svg11.dtd"><svg t="1581771998058" class="icon" viewBox="0 0 1024 1024" version="1.1" xmlns="http://www.w3.org/2000/svg" p-id="2194" xmlns:xlink="http://www.w3.org/1999/xlink" width="128" height="128"><defs><style type="text/css"></style></defs><path d="M748.245 355.728H275.686l236.28 312.498z" fill="#dddddd" p-id="2195"></path><path d="M268.064 355.728c0-1.525 0-2.287 0.763-3.05 1.524-2.286 3.81-4.572 6.86-4.572h472.558c3.049 0 5.335 1.524 6.86 4.573 1.524 2.287 0.762 5.335-0.763 7.622L518.063 672.799c-1.524 1.525-3.81 3.049-6.097 3.049s-4.574-0.762-6.098-3.049l-236.28-312.498c-0.761-1.525-1.524-3.049-1.524-4.573z m464.937 7.622h-442.07l221.035 291.919L733 363.349z" fill="#dddddd" p-id="2196"></path></svg>